<svg width="24" height="24" viewBox="0 0 24 24" fill="none" xmlns="http://www.w3.org/2000/svg">
<g clip-path="url(#clip0_18_1874)">
<path d="M17.3553 20.3571C17.1753 20.3571 17.0027 20.2894 16.8755 20.1689C16.7482 20.0483 16.6767 19.8848 16.6767 19.7143C16.6767 19.5438 16.7482 19.3803 16.8755 19.2597C17.0027 19.1392 17.1753 19.0714 17.3553 19.0714C17.5353 19.0714 17.7078 19.1392 17.8351 19.2597C17.9624 19.3803 18.0339 19.5438 18.0339 19.7143C18.0339 19.8848 17.9624 20.0483 17.8351 20.1689C17.7078 20.2894 17.5353 20.3571 17.3553 20.3571Z" stroke="#8F8F8F" stroke-width="1.42857" stroke-linecap="round" stroke-linejoin="round"/>
<path d="M8.53386 20.3571C8.35389 20.3571 8.18129 20.2894 8.05403 20.1689C7.92678 20.0483 7.85529 19.8848 7.85529 19.7143C7.85529 19.5438 7.92678 19.3803 8.05403 19.2597C8.18129 19.1392 8.35389 19.0714 8.53386 19.0714C8.71383 19.0714 8.88642 19.1392 9.01368 19.2597C9.14094 19.3803 9.21243 19.5438 9.21243 19.7143C9.21243 19.8848 9.14094 20.0483 9.01368 20.1689C8.88642 20.2894 8.71383 20.3571 8.53386 20.3571Z" stroke="#8F8F8F" stroke-width="1.42857" stroke-linecap="round" stroke-linejoin="round"/>
<path d="M15.534 11.3571H11.4626" stroke="#8F8F8F" stroke-width="1.42857" stroke-linecap="round" stroke-linejoin="round"/>
<path d="M13.4983 9.42857V13.2857" stroke="#8F8F8F" stroke-width="1.42857" stroke-linecap="round" stroke-linejoin="round"/>
<path d="M3.17857 3.64285H6.57143L6.92836 6.85714M6.92836 6.85714L7.801 14.7064C7.83619 15.0222 7.99347 15.3144 8.24253 15.5269C8.4916 15.7394 8.81484 15.857 9.15 15.8571H17.7271C18.0297 15.8571 18.3236 15.7613 18.5621 15.585C18.8006 15.4087 18.97 15.1619 19.0436 14.8839L20.74 8.45528C20.7901 8.2657 20.794 8.06779 20.7513 7.87659C20.7085 7.6854 20.6204 7.50594 20.4935 7.35186C20.3665 7.19779 20.2042 7.07315 20.0188 6.98743C19.8334 6.9017 19.6299 6.85714 19.4236 6.85714H6.92836Z" stroke="#8F8F8F" stroke-width="1.42857" stroke-linecap="round" stroke-linejoin="round"/>
</g>
<defs>
<clipPath id="clip0_18_1874">
<rect width="19" height="18" fill="white" transform="translate(2.5 3)"/>
</clipPath>
</defs>
</svg>
