<svg width="5316" height="1300" viewBox="0 0 5316 1300" fill="none" xmlns="http://www.w3.org/2000/svg">
<rect width="5316" height="1300" fill="#2C2C2D"/>
<path fill-rule="evenodd" clip-rule="evenodd" d="M1584.18 820.136C1494.53 820.136 1418.01 738.825 1418.01 650.137C1418.01 561.776 1492.93 478.851 1583.54 478.851C1643.1 478.851 1685.98 507.665 1720.89 552.81H1764.75C1751.62 529.115 1737.54 507.35 1716.09 490.376C1679.26 460.604 1631.56 443 1584.18 443C1470.52 443 1378 536.808 1378 649.822C1378 763.15 1471.81 856 1584.82 856C1630.93 856 1676.07 839.04 1712.25 810.54C1734.99 792.293 1750.99 768.598 1766.37 744.26H1722.51C1687.91 789.405 1643.74 820.136 1584.18 820.136ZM2038.81 604.033C2011.29 568.497 1973.82 546.089 1927.4 546.089C1844.16 546.089 1775.65 613.656 1775.65 696.897C1775.65 780.124 1844.49 848.321 1927.4 848.321C1975.75 848.321 2009.36 828.144 2038.81 791.006V841.586H2074.99V553.125H2038.81V604.033ZM1925.48 815.016C1861.76 815.016 1811.5 759.632 1811.5 697.212C1811.5 635.093 1861.45 579.394 1925.48 579.394C1989.19 579.394 2038.81 635.106 2038.81 697.212C2038.81 759.632 1988.86 815.016 1925.48 815.016ZM2118.85 841.586H2157.61V451.309H2118.85V841.586ZM2303.91 795.797L2205.94 553.125H2167.52L2285.02 841.586H2324.08L2441.27 553.125H2403.48L2303.91 795.797ZM2457.27 841.586H2496.01V553.125H2457.27V841.586ZM2457.27 515.988H2496.01V451.309H2457.27V515.988ZM2662.82 546.075C2626.31 546.075 2600.38 565.294 2576.37 590.906V553.125H2540.51V841.586H2578.61V665.81C2578.29 619.392 2616.7 579.38 2663.45 579.38C2722.02 579.38 2751.48 630.288 2751.48 682.798V841.6H2787.33V682.798C2787.35 607.88 2743.5 546.075 2662.82 546.075ZM3146.9 451.309L2970.8 675.105V451.309H2932.71V841.586H2970.8V734.335L3020.75 672.23L3147.85 841.586H3196.22L3045.08 641.485L3196.22 451.309H3146.9ZM3210.29 841.586H3248.08V451.309H3210.29V841.586ZM3560.87 625.798C3534.62 576.807 3482.11 546.075 3426.71 546.075C3344.12 546.075 3274.31 614.916 3274.31 697.513C3274.31 780.74 3344.75 848.307 3427.38 848.307C3466.74 848.307 3505.5 832.62 3533.98 805.407C3551.28 789.076 3561.52 768.584 3570.78 747.134H3530.14C3509.64 787.16 3473.46 815.003 3426.7 815.003C3398.22 815.003 3370.37 803.477 3349.24 783.943C3327.45 764.108 3317.86 739.756 3313.68 710.955H3579.76C3579.78 680.867 3575.6 652.053 3560.87 625.798ZM3314.98 677.664C3326.53 623.567 3369.09 579.38 3427.38 579.38C3476.36 579.38 3528.87 609.481 3540.4 677.664H3314.98ZM3607.95 841.586H3646.03V553.125H3607.95V841.586ZM3607.95 517.275H3646.03V451.309H3607.95V517.275ZM3813.5 546.075C3776.34 546.075 3750.41 565.294 3726.07 590.906V553.125H3689.58V841.586H3728V665.81C3727.69 619.077 3767.07 579.38 3814.12 579.38C3872.4 579.38 3903.15 630.288 3903.15 682.798V841.6H3939V682.798C3939 607.88 3894.48 546.075 3813.5 546.075Z" fill="#E6E6E6"/>
</svg>
