<svg width="5316" height="1300" viewBox="0 0 5316 1300" fill="none" xmlns="http://www.w3.org/2000/svg">
<rect width="5316" height="1300" fill="#2C2C2D"/>
<path fill-rule="evenodd" clip-rule="evenodd" d="M1761.21 792.041C1686.33 792.041 1622.42 724.118 1622.42 650.032C1622.42 576.22 1684.99 506.948 1760.67 506.948C1810.42 506.948 1846.24 531.018 1875.39 568.73H1912.02C1901.06 548.937 1889.29 530.755 1871.38 516.576C1840.62 491.705 1800.78 477 1761.21 477C1666.28 477 1589 555.363 1589 649.769C1589 744.438 1667.35 822 1761.74 822C1800.25 822 1837.96 807.832 1868.18 784.025C1887.17 768.782 1900.53 748.989 1913.37 728.658H1876.74C1847.85 766.37 1810.95 792.041 1761.21 792.041ZM2140.93 611.519C2117.93 581.834 2086.64 563.116 2047.87 563.116C1978.35 563.116 1921.12 619.558 1921.12 689.093C1921.12 758.617 1978.62 815.585 2047.87 815.585C2088.25 815.585 2116.32 798.73 2140.93 767.708V809.959H2171.14V568.993H2140.93V611.519ZM2046.27 787.764C1993.05 787.764 1951.07 741.499 1951.07 689.356C1951.07 637.465 1992.79 590.937 2046.27 590.937C2099.48 590.937 2140.93 637.476 2140.93 689.356C2140.93 741.499 2099.21 787.764 2046.27 787.764ZM2207.78 809.959H2240.14V483.941H2207.78V809.959ZM2362.34 771.71L2280.51 568.993H2248.42L2346.56 809.959H2379.18L2477.06 568.993H2445.51L2362.34 771.71ZM2490.43 809.959H2522.78V568.993H2490.43V809.959ZM2490.43 537.97H2522.78V483.941H2490.43V537.97ZM2662.11 563.104C2631.61 563.104 2609.96 579.159 2589.91 600.553V568.993H2559.95V809.959H2591.77V663.125C2591.51 624.349 2623.59 590.925 2662.63 590.925C2711.56 590.925 2736.16 633.451 2736.16 677.315V809.971H2766.1V677.315C2766.11 614.732 2729.49 563.104 2662.11 563.104ZM3066.42 483.941L2919.34 670.889V483.941H2887.52V809.959H2919.34V720.367L2961.06 668.488L3067.22 809.959H3107.61L2981.38 642.805L3107.61 483.941H3066.42ZM3119.37 809.959H3150.93V483.941H3119.37V809.959ZM3412.18 629.701C3390.25 588.775 3346.39 563.104 3300.12 563.104C3231.15 563.104 3172.84 620.61 3172.84 689.608C3172.84 759.131 3231.67 815.574 3300.68 815.574C3333.56 815.574 3365.93 802.469 3389.71 779.737C3404.17 766.095 3412.72 748.977 3420.46 731.059H3386.51C3369.39 764.494 3339.17 787.753 3300.11 787.753C3276.33 787.753 3253.07 778.125 3235.42 761.807C3217.22 745.238 3209.21 724.895 3205.72 700.837H3427.96C3427.97 675.703 3424.48 651.633 3412.18 629.701ZM3206.81 673.027C3216.46 627.837 3252 590.925 3300.68 590.925C3341.59 590.925 3385.45 616.07 3395.08 673.027H3206.81ZM3451.5 809.959H3483.31V568.993H3451.5V809.959ZM3451.5 539.045H3483.31V483.941H3451.5V539.045ZM3623.18 563.104C3592.14 563.104 3570.49 579.159 3550.16 600.553V568.993H3519.68V809.959H3551.77V663.125C3551.51 624.086 3584.4 590.925 3623.69 590.925C3672.38 590.925 3698.06 633.451 3698.06 677.315V809.971H3728V677.315C3728 614.732 3690.82 563.104 3623.18 563.104Z" fill="#E6E6E6"/>
</svg>
