<svg width="5316" height="1300" viewBox="0 0 5316 1300" fill="none" xmlns="http://www.w3.org/2000/svg">
<rect width="5316" height="1300" fill="#2C2C2D"/>
<path fill-rule="evenodd" clip-rule="evenodd" d="M1495.17 834.183C1398.13 834.183 1315.31 746.179 1315.31 650.189C1315.31 554.555 1396.4 464.802 1494.47 464.802C1558.94 464.802 1605.36 495.989 1643.14 544.85H1690.61C1676.41 519.205 1661.16 495.648 1637.94 477.277C1598.08 445.053 1546.45 426 1495.17 426C1372.15 426 1272 527.531 1272 649.848C1272 772.506 1373.54 873 1495.86 873C1545.77 873 1594.63 854.644 1633.79 823.798C1658.4 804.048 1675.72 778.403 1692.36 752.061H1644.89C1607.45 800.922 1559.64 834.183 1495.17 834.183ZM1987.26 600.29C1957.46 561.829 1916.91 537.576 1866.67 537.576C1776.57 537.576 1702.41 610.706 1702.41 700.799C1702.41 790.877 1776.92 864.689 1866.67 864.689C1919 864.689 1955.37 842.85 1987.26 802.656V857.399H2026.42V545.191H1987.26V600.29ZM1864.59 828.642C1795.62 828.642 1741.21 768.699 1741.21 701.14C1741.21 633.907 1795.28 573.622 1864.59 573.622C1933.55 573.622 1987.26 633.921 1987.26 701.14C1987.26 768.699 1933.19 828.642 1864.59 828.642ZM2073.89 857.399H2115.84V434.993H2073.89V857.399ZM2274.2 807.841L2168.15 545.191H2126.56L2253.75 857.399H2296.02L2422.87 545.191H2381.97L2274.2 807.841ZM2440.19 857.399H2482.12V545.191H2440.19V857.399ZM2440.19 504.997H2482.12V434.993H2440.19V504.997ZM2662.67 537.561C2623.16 537.561 2595.1 558.362 2569.11 586.082V545.191H2530.29V857.399H2571.52V667.153C2571.18 616.913 2612.76 573.607 2663.36 573.607C2726.76 573.607 2758.64 628.706 2758.64 685.539V857.414H2797.45V685.539C2797.46 604.453 2750 537.561 2662.67 537.561ZM3186.64 434.993L2996.03 677.213V434.993H2954.8V857.399H2996.03V741.319L3050.1 674.101L3187.67 857.399H3240.02L3076.43 640.826L3240.02 434.993H3186.64ZM3255.25 857.399H3296.16V434.993H3255.25V857.399ZM3634.72 623.847C3606.3 570.822 3549.47 537.561 3489.5 537.561C3400.11 537.561 3324.55 612.069 3324.55 701.466C3324.55 791.544 3400.8 864.674 3490.23 864.674C3532.83 864.674 3574.79 847.695 3605.61 818.242C3624.33 800.567 3635.42 778.388 3645.45 755.172H3601.46C3579.26 798.493 3540.1 828.627 3489.49 828.627C3458.67 828.627 3428.52 816.153 3405.65 795.011C3382.07 773.543 3371.68 747.186 3367.16 716.014H3655.17C3655.18 683.45 3650.66 652.263 3634.72 623.847ZM3368.57 679.983C3381.07 621.432 3427.14 573.607 3490.23 573.607C3543.24 573.607 3600.08 606.187 3612.55 679.983H3368.57ZM3685.67 857.399H3726.89V545.191H3685.67V857.399ZM3685.67 506.389H3726.89V434.993H3685.67V506.389ZM3908.16 537.561C3867.93 537.561 3839.87 558.362 3813.53 586.082V545.191H3774.03V857.399H3815.62V667.153C3815.28 616.572 3857.9 573.607 3908.83 573.607C3971.92 573.607 4005.2 628.706 4005.2 685.539V857.414H4044V685.539C4044 604.453 3995.82 537.561 3908.16 537.561Z" fill="#E6E6E6"/>
</svg>
