<svg width="24" height="24" viewBox="0 0 24 24" fill="none" xmlns="http://www.w3.org/2000/svg">
<path d="M14.1429 7V5.57143C14.1429 5.19254 13.9924 4.82919 13.7245 4.56127C13.4566 4.29337 13.0932 4.14286 12.7143 4.14286H11.2857" stroke="#8F8F8F" stroke-width="1.42857" stroke-linecap="round" stroke-linejoin="round"/>
<path d="M7.71429 17H4.14287C3.76398 17 3.40062 16.8494 3.13271 16.5816C2.8648 16.3137 2.71429 15.9503 2.71429 15.5714V5.57143C2.71429 5.19254 2.8648 4.82919 3.13271 4.56127C3.40062 4.29337 3.76398 4.14286 4.14287 4.14286H5.57144" stroke="#8F8F8F" stroke-width="1.42857" stroke-linecap="round" stroke-linejoin="round"/>
<path d="M19.8572 9.85714H12.7143C11.9253 9.85714 11.2857 10.4967 11.2857 11.2857V19.8571C11.2857 20.6461 11.9253 21.2857 12.7143 21.2857H19.8572C20.6462 21.2857 21.2857 20.6461 21.2857 19.8571V11.2857C21.2857 10.4967 20.6462 9.85714 19.8572 9.85714Z" stroke="#8F8F8F" stroke-width="1.42857" stroke-linecap="round" stroke-linejoin="round"/>
<path d="M11.6429 2.71429H5.21429L5.80001 5.02857C5.83569 5.18347 5.92302 5.32162 6.04765 5.42027C6.17228 5.51893 6.32677 5.57224 6.48572 5.57143H10.3714C10.5304 5.57224 10.6849 5.51893 10.8095 5.42027C10.9341 5.32162 11.0215 5.18347 11.0572 5.02857L11.6429 2.71429Z" stroke="#8F8F8F" stroke-width="1.42857" stroke-linecap="round" stroke-linejoin="round"/>
<path d="M14.1429 14.1429H18.4286" stroke="#8F8F8F" stroke-width="1.42857" stroke-linecap="round" stroke-linejoin="round"/>
<path d="M14.1429 17H18.4286" stroke="#8F8F8F" stroke-width="1.42857" stroke-linecap="round" stroke-linejoin="round"/>
</svg>
