<svg width="25" height="24" viewBox="0 0 25 24" fill="none" xmlns="http://www.w3.org/2000/svg">
<path fill-rule="evenodd" clip-rule="evenodd" d="M7.48113 12C7.48113 11.4804 7.56738 10.9821 7.7215 10.5149L5.02525 8.45602C4.49975 9.5229 4.20375 10.7251 4.20375 12C4.20375 13.2739 4.4995 14.4753 5.02413 15.5415L7.71888 13.4787C7.56625 13.0135 7.48113 12.5171 7.48113 12Z" fill="#FBBC05"/>
<path fill-rule="evenodd" clip-rule="evenodd" d="M12.2151 7.27278C13.344 7.27278 14.3636 7.67278 15.1648 8.32728L17.4953 6.00003C16.0751 4.76366 14.2544 4.00003 12.2151 4.00003C9.04913 4.00003 6.32813 5.81053 5.02525 8.45603L7.72138 10.5149C8.34263 8.62916 10.1135 7.27278 12.2151 7.27278Z" fill="#EA4335"/>
<path fill-rule="evenodd" clip-rule="evenodd" d="M12.2151 16.7273C10.1136 16.7273 8.34275 15.3709 7.7215 13.4852L5.02525 15.5437C6.32813 18.1895 9.04913 20 12.2151 20C14.1691 20 16.0348 19.3062 17.4349 18.0062L14.8756 16.0277C14.1535 16.4825 13.2441 16.7273 12.2151 16.7273Z" fill="#34A853"/>
<path fill-rule="evenodd" clip-rule="evenodd" d="M19.8623 12C19.8623 11.5273 19.7894 11.0182 19.6801 10.5455H12.2151V13.6364H16.5121C16.2973 14.6903 15.7125 15.5004 14.8756 16.0277L17.4349 18.0062C18.9056 16.6412 19.8623 14.6077 19.8623 12Z" fill="#4285F4"/>
</svg>
