<svg width="5316" height="1300" viewBox="0 0 5316 1300" fill="none" xmlns="http://www.w3.org/2000/svg">
<rect width="5316" height="1300" fill="#2C2C2D"/>
<path fill-rule="evenodd" clip-rule="evenodd" d="M3789.32 473.058H3875C3865.51 480.423 3859.82 489.442 3859.82 501.787V796.831C3859.82 809.161 3865.75 817.952 3875 825.302H3789.32C3798.57 817.952 3804.26 808.933 3804.26 796.831V501.772C3804.28 489.427 3798.81 480.408 3789.32 473.058ZM1803.49 599.801C1789.49 569.66 1774.06 539.99 1748.19 518.398C1720.66 495.136 1685.75 481.137 1649.68 481.137C1553.8 481.137 1510.83 567.762 1510.83 652.976C1510.83 735.35 1551.9 818.651 1644.46 818.651C1682.19 818.651 1718.99 802.283 1742.24 772.597V706.136C1742.24 688.097 1736.3 676.481 1722.3 665.807H1820.32C1809.88 677.666 1803.49 689.767 1803.49 706.136V772.597C1758.62 814.384 1702.85 840 1640.9 840C1531.49 840 1442 759.539 1442 647.51C1442 536.194 1530.29 460 1638.29 460C1705.46 460 1759.8 484.69 1803.49 534.296V599.801ZM2043.67 473.058H2136C2123.41 482.306 2119.15 492.752 2119.15 508.18V723.476C2119.15 782.558 2188.45 811.53 2239.25 811.53C2289.1 811.53 2354.13 782.346 2354.13 724.661V508.18C2354.13 493.694 2350.56 483.733 2340.84 473.058H2391.16C2380.96 483.505 2377.16 493.937 2377.16 508.18V724.661C2377.16 802.51 2285.32 832.408 2221.7 832.408C2156.2 832.408 2060.54 803.467 2060.54 723.476V508.18C2060.53 493.466 2054.59 482.549 2043.67 473.058ZM2968.35 600.985C2956.03 569.888 2941.54 542.602 2916.14 520.054C2888.85 495.835 2855.62 480.651 2818.84 480.651C2723.92 480.651 2675.25 563.723 2675.25 649.894C2675.25 736.52 2725.82 818.408 2819.56 818.408C2889.34 818.408 2939.19 769.272 2968.37 710.16V774.252C2924.96 817.224 2868.93 839.059 2807.7 839.059C2694.23 839.059 2609.27 765.719 2609.27 648.709C2609.27 535.025 2690.91 460.258 2802.23 460.258C2863.94 460.258 2923.73 481.622 2968.35 524.108V600.985ZM3563.62 600.985C3551.29 569.888 3536.77 542.602 3511.4 520.054C3484.12 495.835 3450.88 480.651 3414.11 480.651C3319.15 480.651 3270.73 563.723 3270.73 649.894C3270.73 736.52 3321.05 818.408 3414.82 818.408C3484.6 818.408 3534.66 769.272 3563.63 710.16V774.252C3520.19 817.224 3464.41 839.059 3402.96 839.059C3289.5 839.059 3204.55 765.719 3204.55 648.709C3204.55 535.025 3286.19 460.258 3397.48 460.258C3459.19 460.258 3519.01 481.622 3563.63 524.108L3563.62 600.985Z" fill="#E6E6E6"/>
</svg>
