<svg width="5316" height="1300" viewBox="0 0 5316 1300" fill="none" xmlns="http://www.w3.org/2000/svg">
<rect width="5316" height="1300" fill="#2C2C2D"/>
<path fill-rule="evenodd" clip-rule="evenodd" d="M4148.13 416.217H4261C4248.5 425.926 4241 437.817 4241 454.093V843.085C4241 859.341 4248.82 870.932 4261 880.621H4148.13C4160.31 870.932 4167.81 859.041 4167.81 843.085V454.073C4167.83 437.797 4160.63 425.906 4148.13 416.217ZM1532.19 583.317C1513.75 543.579 1493.42 504.461 1459.34 475.994C1423.08 445.324 1377.1 426.867 1329.58 426.867C1203.27 426.867 1146.67 541.076 1146.67 653.424C1146.67 762.028 1200.77 871.853 1322.69 871.853C1372.4 871.853 1420.88 850.272 1451.5 811.135V723.511C1451.5 699.728 1443.68 684.413 1425.24 670.34H1554.37C1540.61 685.975 1532.19 701.93 1532.19 723.511V811.135C1473.08 866.228 1399.62 900 1318.01 900C1173.89 900 1056 793.918 1056 646.217C1056 499.456 1172.31 399 1314.57 399C1403.06 399 1474.64 431.551 1532.19 496.954V583.317ZM1848.58 416.217H1970.21C1953.63 428.408 1948.01 442.181 1948.01 462.521V746.373C1948.01 824.268 2039.3 862.464 2106.22 862.464C2171.88 862.464 2257.55 823.987 2257.55 747.934V462.521C2257.55 443.423 2252.85 430.29 2240.05 416.217H2306.33C2292.89 429.99 2287.89 443.743 2287.89 462.521V747.934C2287.89 850.573 2166.9 889.99 2083.1 889.99C1996.81 889.99 1870.81 851.834 1870.81 746.373V462.521C1870.79 443.122 1862.97 428.728 1848.58 416.217ZM3066.67 584.878C3050.43 543.879 3031.35 507.904 2997.89 478.176C2961.95 446.245 2918.16 426.226 2869.72 426.226C2744.67 426.226 2680.57 535.751 2680.57 649.36C2680.57 763.569 2747.17 871.533 2870.66 871.533C2962.59 871.533 3028.25 806.751 3066.69 728.816V813.317C3009.51 869.971 2935.71 898.759 2855.04 898.759C2705.57 898.759 2593.65 802.066 2593.65 647.798C2593.65 497.915 2701.19 399.34 2847.84 399.34C2929.13 399.34 3007.89 427.507 3066.67 483.521V584.878ZM3850.82 584.878C3834.58 543.879 3815.45 507.904 3782.03 478.176C3746.09 446.245 3702.31 426.226 3653.87 426.226C3528.78 426.226 3465 535.751 3465 649.36C3465 763.569 3531.28 871.533 3654.81 871.533C3746.73 871.533 3812.67 806.751 3850.84 728.816V813.317C3793.61 869.971 3720.13 898.759 3639.18 898.759C3489.72 898.759 3377.81 802.066 3377.81 647.798C3377.81 497.915 3485.36 399.34 3631.96 399.34C3713.25 399.34 3792.05 427.507 3850.84 483.521L3850.82 584.878Z" fill="#E6E6E6"/>
</svg>
