<svg width="5316" height="1300" viewBox="0 0 5316 1300" fill="none" xmlns="http://www.w3.org/2000/svg">
<rect width="5316" height="1300" fill="#2C2C2D"/>
<path fill-rule="evenodd" clip-rule="evenodd" d="M2855.25 349.539C2890.21 332.053 2908.16 334.74 2908.61 352.226C2909.05 375.093 2905.46 405.581 2903.21 427.552C2889.77 546.824 2868.24 644.12 2866.45 766.975C2924.3 617.214 2972.27 514.088 3034.6 386.303C3054.33 345.5 3067.33 353.122 3083.47 345.5C3146.69 317.248 3148.93 334.734 3140.41 369.707C3109.93 496.601 3031.91 897.897 3019.81 959.336C3016.22 977.273 2996.49 970.096 2992 962.924C2968.69 931.985 2943.57 931.529 2946.26 910.459C2960.61 808.234 3011.73 549.517 3024.74 488.534C2957.03 626.627 2887.08 800.156 2851.22 897.897C2843.59 918.526 2829.69 917.186 2821.18 901.936C2808.61 879.96 2785.3 869.205 2781.72 844.097C2769.16 763.831 2795.61 610.488 2799.2 513.192C2762.88 619.005 2701.01 825.264 2674.1 918.07C2662.9 956.637 2625.68 949.911 2635.55 913.141C2676.79 756.654 2765.13 480.9 2803.23 381.808C2812.2 358.057 2835.96 359.404 2855.25 349.539ZM2631.95 330.262C2619.84 327.575 2584.87 346.401 2563.35 349.545C2556.63 351.342 2550.35 358.063 2548.11 363.437C2514.02 441.9 2483.54 516.341 2457.53 583.588C2418.26 590.79 2379.1 598.563 2340.05 606.905C2371.89 526.2 2403.73 445.945 2434.66 369.262C2449.91 330.707 2409.56 327.118 2393.85 365.679C2373.68 415.451 2335.56 509.153 2293.42 618.121C2262.48 625.743 2228.85 634.261 2194.78 644.576C2169.67 651.297 2168.77 658.017 2179.53 673.273C2185.8 681.34 2197.46 680.444 2203.29 686.726C2218.09 701.964 2227.06 720.352 2253.51 723.039C2229.3 785.813 2205.98 849.933 2185.36 911.361C2171.9 950.367 2210.01 958.44 2224.36 917.192C2247.68 851.28 2272.34 784.472 2297.9 716.758C2318.98 712.279 2369.65 701.519 2416.72 690.754C2379.51 793.88 2355.3 871.453 2345.43 909.564C2343.64 916.735 2347.22 920.324 2348.56 923.906C2360.68 941.843 2373.23 942.739 2389.37 965.611C2393.41 971.893 2408.2 975.025 2413.59 959.781C2445.73 862.207 2479.96 765.336 2516.26 669.234C2530.17 665.645 2555.28 659.815 2570.52 637.399C2597.42 597.041 2605.05 605.119 2612.22 593.007C2620.29 577.318 2614.46 563.414 2585.77 566.552C2585.77 566.552 2575 567.454 2554.38 569.696C2586.66 487.638 2615.37 418.144 2635.09 364.783C2641.81 346.401 2642.72 332.949 2631.95 330.262Z" fill="#C7232F"/>
<path fill-rule="evenodd" clip-rule="evenodd" d="M2600.41 839.797C2605.08 833.88 2609.31 827.772 2613.12 822.132C2630.11 796.995 2613.57 782.218 2596.08 797.018C2593.59 799.312 2590.99 801.814 2588.42 804.414C2585.55 795.445 2582.7 786.469 2579.88 777.486C2587.9 767.662 2595.7 757.578 2602.35 747.246C2630.46 703.663 2575.46 678.647 2551.69 706.899C2539.14 721.698 2542.28 736.492 2545.86 749.494C2546.9 753.4 2548.52 758.982 2550.52 765.755C2541.81 774.863 2533.37 784.241 2525.24 793.874C2497.89 825.27 2505.49 865.692 2534.21 874.585C2551.52 879.953 2567.85 872.129 2582.01 859.647C2582.69 861.427 2583.34 863.12 2583.98 864.727C2591.6 883.559 2615.37 877.729 2605.95 854.862C2604.43 851.02 2602.54 845.848 2600.41 839.797ZM2561.49 800.288C2563.81 807.61 2566.31 815.301 2568.81 822.664C2565.68 825.27 2562.51 827.905 2559.31 829.754C2548.2 836.186 2540.03 829.303 2554.38 810.026C2556.73 806.697 2559.13 803.472 2561.49 800.288ZM2570.46 745.385C2569.63 743.299 2569.16 741.253 2568.73 739.63C2560.68 709.58 2595.12 717.607 2577.7 737.387C2575.23 740.19 2572.98 742.964 2570.46 745.385Z" fill="#C7232F"/>
</svg>
