<svg width="24" height="24" viewBox="0 0 24 24" fill="none" xmlns="http://www.w3.org/2000/svg">
<path fill-rule="evenodd" clip-rule="evenodd" d="M17.9235 3.63778C18.2024 3.35884 18.6547 3.35884 18.9336 3.63778L21.7908 6.49493C22.0697 6.77387 22.0697 7.22613 21.7908 7.50508C21.5118 7.78402 21.0596 7.78402 20.7806 7.50508L18.4286 5.15301L10.5336 13.0479C10.2547 13.3269 9.80243 13.3269 9.52348 13.0479C9.24453 12.769 9.24453 12.3167 9.52348 12.0378L17.9235 3.63778Z" fill="#8F8F8F"/>
<path fill-rule="evenodd" clip-rule="evenodd" d="M14.7092 6.85207C14.9882 6.57312 15.4404 6.57312 15.7194 6.85207L18.2194 9.35207C18.4983 9.63102 18.4983 10.0833 18.2194 10.3622C17.9404 10.6412 17.4882 10.6412 17.2092 10.3622L14.7092 7.86222C14.4303 7.58328 14.4303 7.13102 14.7092 6.85207Z" fill="#8F8F8F"/>
<path fill-rule="evenodd" clip-rule="evenodd" d="M2 15.5714C2 12.81 4.23858 10.5714 7 10.5714C9.76142 10.5714 12 12.81 12 15.5714C12 18.3329 9.76141 20.5714 7 20.5714C4.23859 20.5714 2 18.3329 2 15.5714ZM7 12C5.02756 12 3.42857 13.599 3.42857 15.5714C3.42857 17.5439 5.02755 19.1429 7 19.1429C8.97245 19.1429 10.5714 17.5439 10.5714 15.5714C10.5714 13.599 8.97244 12 7 12Z" fill="#8F8F8F"/>
</svg>
