<svg width="5316" height="1300" viewBox="0 0 5316 1300" fill="none" xmlns="http://www.w3.org/2000/svg">
<rect width="5316" height="1300" fill="#2C2C2D"/>
<rect width="5316" height="1300" fill="#2C2C2D"/>
<path d="M2451.58 554.826C2427.3 554.826 2414.44 573.777 2414.16 593.175H2492.21C2492.21 570.307 2477.73 554.826 2451.58 554.826ZM3269.67 363.362C3270.25 364.57 3238.18 422.503 3238.73 423.745C3243.84 435.357 3261.38 416.143 3261.38 429.613C3261.38 443.467 3276.57 431.184 3271.45 442.889C3266.34 454.545 3259.43 464.708 3250.7 473.323C3241.97 481.962 3231.61 488.794 3220.23 493.426C3208.62 498.202 3196.23 500.598 3183.06 500.598C3169.92 500.598 3157.49 498.207 3145.81 493.426C3134.34 488.802 3123.89 481.972 3115.06 473.323C3106.27 464.703 3183.45 545.764 3178.34 534.113C3173.21 522.408 3292.69 473.508 3292.69 459.654C3292.69 446.184 3264.54 374.974 3269.67 363.362C3270.21 362.12 3095.4 364.57 3095.99 363.362H1959L2093.43 936C2375.66 754.615 2646.91 928.927 2657.82 935.576H2657.85C2657.88 935.557 2657.91 935.54 2657.94 935.527H2658.07C2658.09 935.542 2658.13 935.556 2658.15 935.576H2658.2C2669.09 928.927 2940.35 754.615 3222.58 936L3357 363.362H3269.67ZM2328.4 711.017H2144.65V519.76H2227.26V658.976H2328.4V711.017ZM2575.54 631.667H2414.31C2414.31 656.561 2435.4 675.339 2463.5 675.339C2480.22 675.339 2495.44 669.814 2506.2 654.866H2570.49C2549.48 703.121 2508.72 716.842 2453.15 716.842C2380.87 716.842 2329.78 677.734 2329.78 615.787C2329.78 549.627 2380.11 514.723 2453.15 514.723C2534.86 514.723 2575.83 567.636 2575.83 618.567C2575.82 622.816 2576.15 627.059 2575.54 631.667ZM2725.1 711.322H2655.48L2551.54 519.602H2645.34L2704.99 636.142L2706.63 639.656L2708.13 636.142L2763.91 519.597H2820.24L2725.1 711.322ZM2908.69 710.948H2829.01V519.242H2908.69V710.948ZM2968.54 543.269L2944.54 569.361H2934.56L2945.56 540.913H2923.57V502.978H2968.54V543.269ZM3073.11 716.409C2987.97 716.409 2972.47 667.251 2972.47 655.073H3034.13C3034.13 662.229 3043.83 670.81 3052.01 674.299C3058.75 677.182 3066.26 677.749 3073.28 677.749C3090.64 677.749 3104.88 673.54 3104.88 663.466C3104.88 651.199 3090.3 648.479 3074.21 646.172C3030.43 639.863 2969.08 632.515 2969.08 583.575C2969.08 537.926 3018.95 514.693 3071.9 514.693C3156.66 514.693 3179.13 561.618 3179.13 575.206H3116.47C3116.47 571.15 3113.38 563.363 3104.84 558.907C3098.5 555.6 3089.19 552.924 3080.18 552.924C3056.77 552.924 3043.6 557.793 3043.6 568.513C3043.6 577.271 3055.47 581.613 3072.52 584.536C3117.02 592.17 3185.36 594.812 3185.36 648.932C3185.35 676.423 3161.53 716.409 3073.11 716.409Z" fill="#D23030"/>
</svg>
