<svg width="5316" height="1300" viewBox="0 0 5316 1300" fill="none" xmlns="http://www.w3.org/2000/svg">
<rect width="5316" height="1300" fill="#2C2C2D"/>
<rect width="5316" height="1300" fill="#2C2C2D"/>
<path d="M2403.74 533.351C2373.83 533.351 2357.99 556.7 2357.65 580.602H2453.79C2453.79 552.425 2435.95 533.351 2403.74 533.351ZM3411.43 297.446C3412.15 298.934 3372.64 370.314 3373.32 371.845C3379.62 386.152 3401.22 362.478 3401.22 379.074C3401.22 396.144 3419.93 381.01 3413.63 395.432C3407.33 409.794 3398.82 422.315 3388.07 432.93C3377.31 443.575 3364.55 451.992 3350.53 457.7C3336.23 463.584 3320.97 466.536 3304.75 466.536C3288.56 466.536 3273.25 463.59 3258.86 457.7C3244.74 452.002 3231.87 443.587 3220.99 432.93C3210.15 422.309 3305.23 522.186 3298.93 507.831C3292.62 493.408 3439.79 433.158 3439.79 416.089C3439.79 399.492 3405.11 311.753 3411.43 297.446C3412.1 295.916 3196.77 298.934 3197.49 297.446H1797L1962.58 1003C2310.23 779.513 2644.34 994.286 2657.78 1002.48H2657.82C2657.85 1002.45 2657.88 1002.43 2657.92 1002.42H2658.09C2658.12 1002.44 2658.16 1002.45 2658.19 1002.48H2658.24C2671.66 994.286 3005.79 779.513 3353.43 1003L3519 297.446H3411.43ZM2252.01 725.796H2025.68V490.145H2127.44V661.676H2252.01V725.796ZM2556.43 628.028H2357.83C2357.83 658.7 2383.81 681.837 2418.43 681.837C2439.01 681.837 2457.77 675.029 2471.02 656.611H2550.21C2524.33 716.067 2474.12 732.973 2405.67 732.973C2316.65 732.973 2253.71 684.788 2253.71 608.462C2253.71 526.945 2315.71 483.939 2405.67 483.939C2506.32 483.939 2556.78 549.134 2556.78 611.887C2556.77 617.122 2557.18 622.35 2556.43 628.028ZM2740.65 726.172H2654.9L2526.87 489.951H2642.41L2715.88 633.542L2717.9 637.872L2719.74 633.542L2788.46 489.945H2857.84L2740.65 726.172ZM2966.78 725.711H2868.64V489.508H2966.78V725.711ZM3040.51 519.111L3010.95 551.259H2998.65L3012.21 516.209H2985.12V469.469H3040.51V519.111ZM3169.32 732.439C3064.44 732.439 3045.36 671.872 3045.36 656.866H3121.3C3121.3 665.684 3133.25 676.256 3143.33 680.555C3151.63 684.108 3160.88 684.806 3169.53 684.806C3190.91 684.806 3208.45 679.62 3208.45 667.208C3208.45 652.093 3190.49 648.741 3170.67 645.899C3116.75 638.127 3041.17 629.073 3041.17 568.772C3041.17 512.529 3102.61 483.903 3167.83 483.903C3272.23 483.903 3299.91 541.719 3299.91 558.461H3222.73C3222.73 553.464 3218.92 543.869 3208.4 538.379C3200.59 534.305 3189.12 531.007 3178.03 531.007C3149.19 531.007 3132.96 537.007 3132.96 550.215C3132.96 561.006 3147.59 566.356 3168.59 569.957C3223.4 579.363 3307.58 582.618 3307.58 649.3C3307.57 683.173 3278.23 732.439 3169.32 732.439Z" fill="#D23030"/>
</svg>
