<svg width="24" height="24" viewBox="0 0 24 24" fill="none" xmlns="http://www.w3.org/2000/svg">
<path d="M14.8571 16V18.2857C14.8571 18.5888 14.7367 18.8795 14.5224 19.0938C14.3081 19.3081 14.0174 19.4286 13.7143 19.4286H5.71428C5.41118 19.4286 5.12049 19.3081 4.90616 19.0938C4.69183 18.8795 4.57143 18.5888 4.57143 18.2857V5.71428C4.57143 5.41118 4.69183 5.12049 4.90616 4.90616C5.12049 4.69183 5.41118 4.57143 5.71428 4.57143H13.7143C14.0174 4.57143 14.3081 4.69183 14.5224 4.90616C14.7367 5.12049 14.8571 5.41118 14.8571 5.71428V8M11.4286 12H19.4286M19.4286 12L17.1429 9.71428M19.4286 12L17.1429 14.2857" stroke="#5C5F6A" stroke-width="1.43" stroke-linecap="round" stroke-linejoin="round"/>
</svg>
