<svg width="5316" height="1300" viewBox="0 0 5316 1300" fill="none" xmlns="http://www.w3.org/2000/svg">
<rect width="5316" height="1300" fill="#2C2C2D"/>
<rect width="5316" height="1300" fill="#2C2C2D"/>
<path fill-rule="evenodd" clip-rule="evenodd" d="M2978.77 980.648H2987.66V1055.73L2933.34 998.905V1052.94H2924.21V977.089L2978.77 1034.17V980.648ZM2723.48 980.648V1026.56C2723.48 1034.67 2721.19 1041.27 2716.62 1046.35C2711.8 1051.93 2705.2 1054.46 2696.83 1054.46C2688.96 1054.46 2682.37 1051.93 2677.54 1046.35C2672.72 1041.27 2670.43 1034.67 2670.43 1026.56V980.648H2679.57V1023.51C2679.57 1038.48 2685.16 1046.1 2696.83 1046.1C2708.75 1046.1 2714.59 1038.48 2714.59 1023.51V980.648H2723.48ZM2751.39 980.648H2794.79V989.021H2777.53V1052.94H2768.9V989.021H2751.39V980.648ZM2735.66 980.648H2744.79V1052.94H2735.66V980.648ZM2655.72 980.648H2665.61L2634.14 1057L2602.68 980.648H2612.57L2634.15 1034.17L2655.72 980.648ZM2907.46 1016.92C2907.46 1025.03 2904.67 1031.89 2898.84 1037.72C2893.51 1043.3 2886.65 1046.09 2878.78 1046.09C2870.91 1046.09 2864.06 1043.3 2858.23 1037.72C2852.39 1031.88 2849.6 1025.03 2849.6 1016.92C2849.6 1008.8 2852.14 1001.95 2857.72 996.37C2863.3 990.541 2870.41 987.749 2878.78 987.749C2887.16 987.749 2894.01 990.541 2899.34 996.37C2904.67 1001.95 2907.46 1008.8 2907.46 1016.92ZM2905.43 990.284C2897.82 982.926 2888.94 979.124 2878.78 979.124C2868.38 979.124 2859.5 982.926 2851.88 990.284C2844.53 997.637 2840.72 1006.52 2840.72 1016.91C2840.72 1027.56 2844.53 1036.45 2851.88 1043.8C2859.25 1050.91 2868.13 1054.46 2878.78 1054.46C2889.2 1054.46 2898.33 1050.91 2905.43 1043.8C2912.8 1036.45 2916.6 1027.56 2916.6 1016.91C2916.6 1006.52 2912.8 997.637 2905.43 990.284ZM2838.69 980.648V989.021H2821.69V1052.94H2812.55V989.021H2795.3V980.648H2838.69ZM2418.94 996.37C2424.27 1001.95 2426.8 1008.8 2426.8 1016.92C2426.8 1025.03 2424.01 1031.89 2418.43 1037.72C2412.85 1043.3 2405.99 1046.09 2398.13 1046.09C2390.26 1046.09 2383.41 1043.3 2377.57 1037.72C2372.24 1031.88 2369.2 1025.03 2369.2 1016.92C2369.2 1008.8 2371.99 1001.95 2377.32 996.37C2382.9 990.541 2389.76 987.749 2398.13 987.749C2406.5 987.749 2413.61 990.541 2418.94 996.37ZM2424.78 990.284C2417.16 982.926 2408.28 979.124 2398.13 979.124C2387.72 979.124 2378.59 982.926 2371.49 990.284C2363.87 997.637 2360.07 1006.52 2360.07 1016.91C2360.07 1027.56 2363.88 1036.45 2371.49 1043.8C2378.59 1050.91 2387.48 1054.46 2398.13 1054.46C2408.79 1054.46 2417.67 1050.91 2424.78 1043.8C2432.39 1036.45 2435.94 1027.56 2435.94 1016.91C2435.94 1006.52 2432.39 997.637 2424.78 990.284ZM2452.44 1023.51C2452.44 1038.48 2458.28 1046.09 2469.95 1046.09C2481.37 1046.09 2487.46 1038.48 2487.46 1023.51V980.644H2496.34V1026.55C2496.34 1034.67 2494.06 1041.27 2489.24 1046.34C2484.42 1051.92 2477.82 1054.46 2469.95 1054.46C2461.83 1054.46 2455.49 1051.92 2450.67 1046.34C2445.59 1041.27 2443.31 1034.67 2443.31 1026.55V980.644H2452.44L2452.44 1023.51ZM2337.22 980.648V1044.82H2359.3V1052.94H2328.34V980.644H2337.22V980.648ZM2554.71 1010.32C2566.89 1015.14 2572.73 1022.24 2572.73 1031.88C2572.73 1038.48 2570.45 1043.8 2565.88 1048.12C2561.57 1052.43 2556.24 1054.46 2549.89 1054.46C2544.05 1054.46 2538.98 1052.69 2534.67 1048.63C2530.6 1044.82 2528.07 1040 2527.31 1034.17L2536.44 1032.14C2536.44 1036.2 2537.71 1039.5 2540.5 1042.29C2543.3 1044.82 2546.34 1046.09 2550.4 1046.09C2554.21 1046.09 2557.25 1044.57 2560.04 1041.78C2562.33 1039.24 2563.6 1035.94 2563.6 1031.89C2563.6 1026.31 2559.53 1021.74 2551.16 1018.19L2546.09 1016.42C2535.93 1011.59 2530.6 1005.51 2530.6 997.895C2530.6 992.314 2532.89 987.496 2536.95 984.194C2541.26 980.648 2546.09 979.124 2551.93 979.124C2560.3 979.124 2566.39 982.926 2570.45 990.284L2563.34 994.344C2560.55 990.032 2556.75 987.749 2551.67 987.749C2548.62 987.749 2545.58 988.507 2543.29 990.284C2540.75 992.31 2539.48 994.854 2539.48 997.89C2539.48 1002.2 2542.78 1005.5 2549.89 1008.04L2554.71 1010.32ZM2508.53 980.648H2517.67V1052.94H2508.53V980.648ZM2864.89 327.134L2689.86 740.066L2641.57 634.153L2730.76 391.489C2737.47 372.722 2760.94 364.005 2800.51 364.005L2814.59 327.134H2606.69L2593.28 364.005C2622.79 364.005 2634.86 372.718 2630.16 391.489L2585.91 514.831L2498.72 327.134C2482.63 307.026 2490.67 296.967 2522.2 296.967V253.4H2321V296.971C2358.56 296.971 2382.03 307.03 2392.09 327.138L2539.63 640.862L2470.56 825.205C2469.21 850.005 2430.32 862.08 2355.2 862.08L2341.12 898.947H2915.19L2995 729.35H2953.42C2914.53 817.163 2869.59 862.08 2819.29 862.08H2555.73L2594.62 758.175L2628.15 825.205H2703.27L2915.19 327.143C2925.25 296.976 2951.41 280.892 2992.32 280.892V242H2819.29V280.884C2871.6 280.884 2886.36 296.971 2864.89 327.134Z" fill="#E6E6E6"/>
</svg>
