<svg width="5316" height="1300" viewBox="0 0 5316 1300" fill="none" xmlns="http://www.w3.org/2000/svg">
<rect width="5316" height="1300" fill="#2C2C2D"/>
<rect width="5316" height="1300" fill="#2C2C2D"/>
<path fill-rule="evenodd" clip-rule="evenodd" d="M2964.5 966.115H2972.99V1037.79L2921.09 983.543V1035.12H2912.36V962.717L2964.5 1017.21V966.115ZM2720.56 966.115V1009.94C2720.56 1017.69 2718.38 1023.98 2714.01 1028.83C2709.41 1034.16 2703.1 1036.58 2695.1 1036.58C2687.58 1036.58 2681.28 1034.16 2676.67 1028.83C2672.07 1023.98 2669.88 1017.69 2669.88 1009.94V966.115H2678.61V1007.03C2678.61 1021.32 2683.95 1028.59 2695.1 1028.59C2706.49 1028.59 2712.07 1021.32 2712.07 1007.03V966.115H2720.56ZM2747.24 966.115H2788.7V974.107H2772.21V1035.13H2763.97V974.107H2747.24V966.115ZM2732.2 966.115H2740.93V1035.13H2732.2V966.115ZM2655.82 966.115H2665.27L2635.2 1039L2605.14 966.115H2614.6L2635.21 1017.21L2655.82 966.115ZM2896.36 1000.74C2896.36 1008.49 2893.69 1015.03 2888.12 1020.59C2883.02 1025.92 2876.48 1028.59 2868.95 1028.59C2861.44 1028.59 2854.89 1025.92 2849.32 1020.59C2843.74 1015.02 2841.07 1008.49 2841.07 1000.74C2841.07 992.991 2843.5 986.449 2848.83 981.122C2854.16 975.558 2860.96 972.893 2868.95 972.893C2876.96 972.893 2883.5 975.558 2888.59 981.122C2893.69 986.449 2896.36 992.986 2896.36 1000.74ZM2894.42 975.313C2887.15 968.289 2878.66 964.659 2868.96 964.659C2859.02 964.659 2850.53 968.289 2843.25 975.313C2836.23 982.333 2832.59 990.812 2832.59 1000.73C2832.59 1010.9 2836.23 1019.38 2843.25 1026.4C2850.29 1033.18 2858.77 1036.58 2868.96 1036.58C2878.9 1036.58 2887.63 1033.18 2894.42 1026.4C2901.45 1019.38 2905.09 1010.9 2905.09 1000.73C2905.09 990.812 2901.46 982.333 2894.42 975.313ZM2830.65 966.115V974.107H2814.4V1035.13H2805.67V974.107H2789.19V966.115H2830.65ZM2429.58 981.122C2434.67 986.449 2437.1 992.991 2437.1 1000.74C2437.1 1008.49 2434.43 1015.03 2429.1 1020.59C2423.76 1025.92 2417.21 1028.59 2409.69 1028.59C2402.18 1028.59 2395.63 1025.92 2390.06 1020.59C2384.96 1015.02 2382.06 1008.49 2382.06 1000.74C2382.06 992.991 2384.72 986.449 2389.81 981.122C2395.15 975.558 2401.7 972.893 2409.7 972.893C2417.7 972.893 2424.49 975.558 2429.58 981.122ZM2435.16 975.313C2427.88 968.289 2419.4 964.659 2409.7 964.659C2399.75 964.659 2391.03 968.289 2384.24 975.313C2376.96 982.333 2373.33 990.812 2373.33 1000.73C2373.33 1010.9 2376.97 1019.38 2384.24 1026.4C2391.03 1033.18 2399.52 1036.58 2409.7 1036.58C2419.88 1036.58 2428.37 1033.18 2435.16 1026.4C2442.43 1019.38 2445.83 1010.9 2445.83 1000.73C2445.83 990.812 2442.43 982.333 2435.16 975.313ZM2461.59 1007.03C2461.59 1021.32 2467.17 1028.59 2478.32 1028.59C2489.24 1028.59 2495.05 1021.32 2495.05 1007.03V966.11H2503.54V1009.94C2503.54 1017.68 2501.36 1023.98 2496.75 1028.83C2492.14 1034.16 2485.84 1036.58 2478.32 1036.58C2470.56 1036.58 2464.5 1034.16 2459.89 1028.83C2455.04 1023.98 2452.87 1017.68 2452.87 1009.94V966.11H2461.59L2461.59 1007.03ZM2351.5 966.115V1027.38H2372.6V1035.12H2343.01V966.11H2351.5V966.115ZM2559.31 994.442C2570.95 999.037 2576.53 1005.82 2576.53 1015.02C2576.53 1021.32 2574.34 1026.4 2569.98 1030.52C2565.86 1034.64 2560.76 1036.58 2554.7 1036.58C2549.13 1036.58 2544.27 1034.88 2540.16 1031.01C2536.28 1027.38 2533.85 1022.77 2533.12 1017.21L2541.85 1015.27C2541.85 1019.14 2543.06 1022.29 2545.73 1024.96C2548.4 1027.38 2551.31 1028.59 2555.19 1028.59C2558.83 1028.59 2561.74 1027.13 2564.4 1024.47C2566.59 1022.05 2567.8 1018.9 2567.8 1015.03C2567.8 1009.7 2563.92 1005.35 2555.92 1001.95L2551.07 1000.26C2541.37 995.656 2536.28 989.847 2536.28 982.578C2536.28 977.251 2538.46 972.652 2542.34 969.5C2546.46 966.115 2551.07 964.659 2556.65 964.659C2564.65 964.659 2570.47 968.289 2574.34 975.313L2567.56 979.189C2564.89 975.072 2561.25 972.893 2556.4 972.893C2553.49 972.893 2550.58 973.616 2548.4 975.313C2545.97 977.247 2544.76 979.675 2544.76 982.574C2544.76 986.691 2547.91 989.843 2554.7 992.263L2559.31 994.442ZM2515.18 966.115H2523.91V1035.13H2515.18V966.115ZM2855.68 342.269L2688.44 736.455L2642.3 635.35L2727.53 403.702C2733.93 385.787 2756.36 377.466 2794.17 377.466L2807.62 342.269H2608.98L2596.16 377.466C2624.36 377.466 2635.89 385.783 2631.4 403.702L2589.12 521.445L2505.81 342.269C2490.44 323.074 2498.12 313.472 2528.24 313.472V271.883H2336V313.476C2371.89 313.476 2394.31 323.078 2403.93 342.273L2544.9 641.754L2478.9 817.728C2477.61 841.402 2440.45 852.929 2368.68 852.929L2355.23 888.122H2903.74L2980 726.225H2940.27C2903.11 810.051 2860.17 852.929 2812.11 852.929H2560.28L2597.44 753.741L2629.48 817.728H2701.25L2903.74 342.277C2913.36 313.48 2938.35 298.127 2977.43 298.127V261H2812.11V298.119C2862.09 298.119 2876.19 313.476 2855.68 342.269Z" fill="#E6E6E6"/>
</svg>
