<svg width="24" height="24" viewBox="0 0 24 24" fill="none" xmlns="http://www.w3.org/2000/svg">
<path d="M6.14287 12.5714C5.82728 12.5714 5.57144 12.3156 5.57144 12C5.57144 11.6844 5.82728 11.4286 6.14287 11.4286" stroke="#5C5F6A" stroke-width="1.8" stroke-linecap="round" stroke-linejoin="round"/>
<path d="M6.14287 12.5714C6.45846 12.5714 6.7143 12.3156 6.7143 12C6.7143 11.6844 6.45846 11.4286 6.14287 11.4286" stroke="#5C5F6A" stroke-width="1.8" stroke-linecap="round" stroke-linejoin="round"/>
<path d="M12 12.5714C11.6844 12.5714 11.4286 12.3156 11.4286 12C11.4286 11.6844 11.6844 11.4286 12 11.4286" stroke="#5C5F6A" stroke-width="1.8" stroke-linecap="round" stroke-linejoin="round"/>
<path d="M12 12.5714C12.3156 12.5714 12.5714 12.3156 12.5714 12C12.5714 11.6844 12.3156 11.4286 12 11.4286" stroke="#5C5F6A" stroke-width="1.8" stroke-linecap="round" stroke-linejoin="round"/>
<path d="M17.8571 12.5714C17.5415 12.5714 17.2857 12.3156 17.2857 12C17.2857 11.6844 17.5415 11.4286 17.8571 11.4286" stroke="#5C5F6A" stroke-width="1.8" stroke-linecap="round" stroke-linejoin="round"/>
<path d="M17.8571 12.5714C18.1728 12.5714 18.4285 12.3156 18.4285 12C18.4285 11.6844 18.1728 11.4286 17.8571 11.4286" stroke="#5C5F6A" stroke-width="1.8" stroke-linecap="round" stroke-linejoin="round"/>
</svg>
