<svg width="5316" height="1300" viewBox="0 0 5316 1300" fill="none" xmlns="http://www.w3.org/2000/svg">
<rect width="5316" height="1300" fill="#2C2C2D"/>
<path fill-rule="evenodd" clip-rule="evenodd" d="M2439.04 754.927H2269.21V544.964H2439.04V754.927Z" fill="white"/>
<path fill-rule="evenodd" clip-rule="evenodd" d="M2269.21 544.964H2439.04V592.133H2269.21V544.964ZM2269.21 707.714H2439.04V754.927H2269.21V707.714Z" fill="#4F4D67"/>
<path fill-rule="evenodd" clip-rule="evenodd" d="M2439.04 754.927H2608.87V544.964H2439.04V754.927Z" fill="#CA3432"/>
<path fill-rule="evenodd" clip-rule="evenodd" d="M2608.87 544.964H2439.04V592.133H2608.87V544.964ZM2608.87 707.714H2439.04V754.927H2608.87V707.714Z" fill="#4F4D67"/>
<path fill-rule="evenodd" clip-rule="evenodd" d="M677.966 756.267V568.82H608V543.691H776.126V568.82H706.16V756.267H677.966ZM960.507 584.881C967.273 578.242 975.288 573.011 984.088 569.491C992.889 565.97 1002.3 564.231 1011.78 564.373C1025.77 564.373 1038.35 567.934 1049.6 575.037C1060.85 582.139 1069.37 592.134 1075.2 605.044C1081.05 617.953 1083.95 633.043 1083.95 650.357C1083.95 677.687 1077.12 698.821 1063.48 713.695C1049.84 728.569 1032.44 736.017 1011.33 736.017C990.601 736.017 973.352 728.634 959.622 713.911C945.871 699.167 939.006 679.025 939.006 653.401C939.006 621.386 946.173 598.546 960.507 584.881ZM922.189 705.881C929.99 722.276 942.417 736.031 957.938 745.451C973.654 755.101 991.507 759.937 1011.48 759.937C1029.49 760.046 1047.23 755.535 1063.01 746.833C1078.92 738.111 1091.24 725.223 1099.92 708.212C1108.6 691.201 1112.94 671.902 1112.94 650.357C1112.94 629.093 1108.82 610.074 1100.57 593.3C1092.72 576.956 1080.21 563.306 1064.6 554.075C1048.89 544.706 1031.23 540.022 1011.63 540.022C981.707 540.022 957.291 549.995 938.38 569.985C919.469 589.933 910.035 617.543 910.035 652.818C910.035 671.491 914.072 689.15 922.189 705.881ZM1267.38 756.267V543.67H1309.47L1359.84 694.137C1364.48 708.147 1367.85 718.639 1369.98 725.59C1372.45 717.862 1376.22 706.507 1381.38 691.525L1432.72 543.67H1470.26V756.267H1443.21V578.469L1381.1 756.267H1355.76L1294.41 575.382V756.267H1267.38ZM1633.36 756.267V543.67H1675.47L1725.82 694.137C1730.46 708.147 1733.85 718.639 1735.98 725.59C1738.42 717.862 1742.22 706.507 1747.4 691.525L1798.74 543.67H1836.28V756.267H1809.23V578.469L1747.12 756.267H1721.76L1660.41 575.382V756.267H1633.36ZM2060.04 756.267V666.202L1978.11 543.67H2011.96L2053.87 608.066C2061.57 619.721 2068.85 631.653 2075.69 643.837C2082.23 632.72 2090 620.177 2099.01 606.21L2140.17 543.67H2172.92L2088.28 666.202V756.267H2060.04ZM2743.66 756.267V543.691H2771.85V631.057H2881.99V543.691H2910.25V756.267H2881.99V656.186H2771.85V756.267H2743.66ZM3050.9 756.267V543.691H3079.11V756.267H3050.9ZM3216.26 756.267V543.691H3244.48V731.16H3349.22V756.267H3216.26ZM3472.7 756.267V543.691H3616.48V568.82H3500.92V634.533H3601.02V659.64H3500.92V756.267H3472.7ZM3746.93 756.267V543.691H3775.15V756.267H3746.93ZM4012.74 672.981V647.874H4102.81V726.756C4089.96 737.238 4075.55 745.624 4060.09 751.604C4045.65 757.122 4030.33 759.947 4014.88 759.937C3994.05 759.937 3975.12 755.468 3958.08 746.552C3941.43 738.006 3927.92 724.412 3919.46 707.716C3910.83 690.812 3906.42 671.88 3906.42 650.983C3906.42 630.302 3910.76 610.981 3919.42 593.02C3928.08 575.058 3940.51 561.76 3956.7 553.039C3972.89 544.339 3991.61 540 4012.74 540C4028.09 540 4041.97 542.482 4054.36 547.469C4066.8 552.434 4076.49 559.386 4083.59 568.28C4090.63 577.174 4095.99 588.788 4099.66 603.08L4074.35 610.031C4071.16 599.194 4067.23 590.667 4062.46 584.449C4057.73 578.254 4051 573.288 4042.21 569.575C4032.94 565.757 4022.99 563.855 4012.96 563.984C4000.09 563.984 3988.97 565.948 3979.65 569.856C3970.24 573.785 3962.7 578.944 3957 585.356C3951.34 591.56 3946.79 598.695 3943.55 606.447C3938.07 620.077 3935.32 634.651 3935.46 649.342C3935.46 668.339 3938.7 684.228 3945.24 697.03C3951.78 709.831 3961.21 719.308 3973.69 725.526C3986 731.695 3999.6 734.883 4013.37 734.83C4025.5 734.83 4037.4 732.477 4048.99 727.771C4060.58 723.065 4069.35 718.078 4075.35 712.702V672.981H4012.74ZM4234.51 756.267V543.691H4387.53V568.82H4262.73V633.756H4379.43V658.884H4262.73V731.16H4392.6V756.267H4234.51ZM4548.98 567.287H4616.27C4632.03 567.287 4643.6 570.504 4650.9 577.001C4658.2 583.478 4661.87 591.768 4661.87 601.806C4661.87 608.671 4659.97 615.018 4656.21 620.868C4652.27 626.85 4646.46 631.347 4639.67 633.648C4632.38 636.303 4622.34 637.642 4609.49 637.642H4548.98V567.287ZM4548.98 756.267V661.971H4581.62C4588.88 661.971 4594.1 662.295 4597.28 662.986C4601.66 664.044 4605.95 665.922 4610.14 668.642C4614.35 671.34 4619.12 676.089 4624.43 682.846C4629.74 689.603 4636.5 699.339 4644.75 712.076L4672.83 756.267H4708L4671.19 698.454C4664.66 688.095 4656.84 678.607 4647.92 670.218C4644.04 666.72 4638.4 663.201 4630.97 659.618C4651.38 656.833 4666.44 650.249 4676.22 639.887C4686 629.525 4690.86 616.809 4690.86 601.719C4690.86 589.997 4687.9 579.311 4682.05 569.64C4676.66 560.427 4668.33 553.295 4658.39 549.391C4648.53 545.591 4634.1 543.67 4615.17 543.67H4520.81V756.267H4548.98Z" fill="#E6E6E6"/>
</svg>
