<svg width="24" height="24" viewBox="0 0 24 24" fill="none" xmlns="http://www.w3.org/2000/svg">
<path d="M7.80769 19.7857H5.41208C5.0944 19.7857 4.78974 19.6595 4.56511 19.4349C4.34048 19.2103 4.21428 18.9056 4.21428 18.5879V9.0055M4.21428 9.0055H19.7857M4.21428 9.0055L6.86142 4.81318C6.96386 4.63559 7.11016 4.48727 7.28633 4.38241C7.4625 4.27754 7.66263 4.21965 7.86758 4.21428H16.1324C16.3374 4.21965 16.5375 4.27754 16.7137 4.38241C16.8898 4.48727 17.0362 4.63559 17.1386 4.81318L19.7857 9.0055M19.7857 9.0055V18.5879C19.7857 18.9056 19.6595 19.2103 19.4349 19.4349C19.2103 19.6595 18.9056 19.7857 18.5879 19.7857H16.1923M9.00544 15.5934L11.9999 12.5989M11.9999 12.5989L14.9945 15.5934M11.9999 12.5989L12 19.7857M12 4.21428V9.00549" stroke="#5C5F6A" stroke-width="1.42857" stroke-linecap="round" stroke-linejoin="round"/>
</svg>
