<svg width="5316" height="1300" viewBox="0 0 5316 1300" fill="none" xmlns="http://www.w3.org/2000/svg">
<rect width="5316" height="1300" fill="#2C2C2D"/>
<path d="M3247.6 909.637L3052.92 373.355L3052.79 373H3048.95L3008.86 483.204L2935.88 683.834L2935.71 683.675C2910.41 661.343 2874.72 647.383 2829.78 642.185L2816.07 640.769L2829.67 639.024C2903.79 625.699 2953.61 578.863 2953.61 522.436C2953.61 445.058 2880.87 391.048 2776.68 391.048H2559.89V394.966H2622.88V794.795L2469.89 373.354L2469.75 373H2465.91L2425.82 483.204L2271.2 908.257L2270.25 908.367C2267.6 908.693 2264.99 908.952 2262.4 909.148C2258.52 909.453 2254.65 909.636 2250.77 909.636H2094.53L2391.52 394.965L2393.72 391.097H2030.5V550.308H2034.36C2035.04 472.759 2080.18 394.965 2179.91 394.965H2300.23L2001 913.492H2404.11V760.957H2400.26C2399.73 828.549 2361.44 892.748 2278.16 907.244L2275.52 907.697L2338.94 733.281H2516.6L2580.62 909.637H2517.47V913.493H2765.33V909.637H2701.91V643.613H2775.09C2849.56 643.613 2892.27 676.901 2892.27 734.914V782.103C2892.27 787.302 2892.63 794.904 2893.02 801.262V801.493L2853.68 909.612H2802.3V913.468H2908.67V909.612H2857.83L2893.65 811.159C2893.73 812.111 2893.76 812.684 2893.76 812.684L2894.75 821.556L2895.7 827.425C2901.68 863.729 2915.56 890.416 2936.94 906.744L2940.01 908.977C2956.26 920.277 2976.44 926 3000.04 926C3031.3 926 3052.14 918.202 3069.35 899.85L3067.1 897.726C3051.24 912.369 3037.94 918.301 3021.26 918.301C2992.86 918.301 2977.99 883.827 2977.99 849.83V783.713C2978.14 767.308 2975.58 750.991 2970.39 735.427L2969.69 733.377V733.303H3099.64L3163.65 909.661H3100.5V913.517H3315V909.661L3247.6 909.637ZM2340.35 729.424L2427.87 488.843L2515.2 729.424H2340.35ZM2701.95 639.744V394.965H2757.81C2832.43 394.965 2871.82 439.347 2871.82 523.267C2871.82 612.519 2849.21 639.744 2775.09 639.744H2701.95ZM2968.17 729.424L2967.79 728.472C2962.02 714.399 2953.61 701.559 2943.02 690.642L2939.36 686.981L2938.97 686.616L3010.86 488.843L3098.18 729.424H2968.17Z" fill="#E6E6E6"/>
</svg>
