<svg width="5316" height="1300" viewBox="0 0 5316 1300" fill="none" xmlns="http://www.w3.org/2000/svg">
<rect width="5316" height="1300" fill="#2C2C2D"/>
<path d="M3348.96 954.826L3120.65 326.416L3120.49 326H3115.99L3068.97 455.136L2983.38 690.232L2983.18 690.045C2953.52 663.877 2911.66 647.52 2858.96 641.428L2842.88 639.769L2858.83 637.725C2945.75 622.11 3004.18 567.229 3004.18 501.108C3004.18 410.437 2918.87 347.149 2796.68 347.149H2542.44V351.74H2616.31V820.255L2436.9 326.414L2436.73 326H2432.23L2385.21 455.136L2203.88 953.209L2202.76 953.338C2199.66 953.72 2196.6 954.024 2193.56 954.253C2189 954.611 2184.47 954.825 2179.92 954.825H1996.69L2344.98 351.738L2347.57 347.206H1921.6V533.768H1926.12C1926.92 442.896 1979.86 351.738 2096.82 351.738H2237.92L1887 959.343H2359.75V780.604H2355.23C2354.62 859.807 2309.71 935.036 2212.04 952.022L2208.94 952.552L2283.32 748.174H2491.67L2566.75 954.826H2492.69V959.345H2783.38V954.826H2709V643.101H2794.82C2882.16 643.101 2932.25 682.108 2932.25 750.087V805.383C2932.25 811.475 2932.66 820.383 2933.12 827.833V828.104L2886.99 954.797H2826.73V959.315H2951.47V954.797H2891.86L2933.86 839.43C2933.95 840.546 2933.99 841.218 2933.99 841.218L2935.15 851.613L2936.27 858.49C2943.28 901.031 2959.55 932.303 2984.63 951.435L2988.23 954.053C3007.28 967.294 3030.96 974 3058.63 974C3095.29 974 3119.74 964.863 3139.92 943.358L3137.27 940.869C3118.68 958.027 3103.07 964.978 3083.52 964.978C3050.21 964.978 3032.77 924.582 3032.77 884.745V807.27C3032.95 788.046 3029.94 768.927 3023.86 750.688L3023.03 748.286V748.2H3175.43L3250.51 954.854H3176.45V959.372H3428V954.854L3348.96 954.826ZM2284.98 743.654L2387.62 461.743L2490.03 743.654H2284.98ZM2709.04 638.567V351.738H2774.55C2862.06 351.738 2908.26 403.744 2908.26 502.081C2908.26 606.666 2881.74 638.567 2794.82 638.567H2709.04ZM3021.26 743.654L3020.81 742.538C3014.04 726.048 3004.18 711.003 2991.76 698.21L2987.47 693.92L2987.01 693.492L3071.32 461.743L3173.73 743.654H3021.26Z" fill="#E6E6E6"/>
</svg>
